<?xml version="1.0" encoding="utf-8"?>
<!-- Generator: Adobe Illustrator 18.0.0, SVG Export Plug-In . SVG Version: 6.00 Build 0)  -->
<!DOCTYPE svg PUBLIC "-//W3C//DTD SVG 1.1//EN" "http://www.w3.org/Graphics/SVG/1.1/DTD/svg11.dtd">
<svg version="1.1" id="Layer_1" xmlns="http://www.w3.org/2000/svg" xmlns:xlink="http://www.w3.org/1999/xlink" x="0px" y="0px"
	 viewBox="0 0 292.2 138.3" enable-background="new 0 0 292.2 138.3" xml:space="preserve">
<path fill="#39B54A" d="M142.7,84.9c1,0,1.7,1,1.7,2.9c0,2.6-1,5.3-5.9,6.1C139.2,87.8,141.5,84.9,142.7,84.9 M230,83
	c5.4,4.3,6.2,9.9,10.8,15.6c4.6,5.7,8.8,6.4,8.8,6.4s-4.3,0.3-10.8-6.6c-4.5-4.8-3.8-5.6-9.4-12c-3.2-3.6-7.3-4.2-10.7-4.4
	c-3.5-0.2-8.2,0.7-8.2,0.7S221,75.9,230,83 M88.6,92.9l-0.1,2.3c-5.2,7.1-9.1,10.3-11,10.3c-0.7,0-1.2-0.3-1.2-1.4
	c0-1.6,3.6-9.7,5.4-14.6c1.3-3.5,1.6-5.2,1.6-6.7c0-3.5-3.5-7-8.4-7c-1.3,0-2.8,0.5-3.6,1.6c-0.4,7.4-1.6,13.5-4.6,22.8
	c-1.7,1.8-4.5,3.9-6,3.9c-1.2,0-1.7-0.9-1.7-2.2c0-1.4,0.5-4,1.4-7.1c4.4-7.2,6.7-12.4,6.7-15.1c0-2.6-1.5-3.5-4.2-3.5
	c-6.1,0-14.4,9.7-14.4,15.1c0,1.7,0.2,3.5,1.1,5.4c-2.3,5.5-3.5,10.6-3.5,13.2c0,5.2,1.2,8.1,6.3,8.1c3.9,0,9.2-3.6,13.3-11.5
	c-0.3,1.8-0.5,3.3-0.5,4.5c0,4.5,2.2,5.6,5.7,5.6c3.6,0,8.2-2.8,12.3-6.4c1.7-1.5,3.4-3.2,4.8-4.8l-0.4,12.7
	c-3.2,5.8-4.5,10.2-4.5,12.6c0,4.3,5.2,7.7,9.3,7.7c5.3,0,7.3-16.2,8.3-40.3c3.3-3.5,4.9-4.8,6.1-4.8c1.1,0,1.7,0.6,1.7,2.4
	c0,1.9-1.1,4.7-2.7,7.7c-2.3,0.7-3.1,2.3-3.1,4.4c0,3.7,1.8,8.4,7.8,8.4c4.5,0,10.9-4.3,15.7-9c1.2,6.3,5.1,9.7,11.9,9.7
	c8.6,0,19-8,23.5-14.6c2-2.6,3.7-5.3,5.9-9.4c1.9,0.8,2.9,1.3,2.9,2.3c0,2.3-4.2,9.6-4.2,15.3c0,4.9,2.9,7.3,8.2,7.3
	c7.2,0,20-12.7,22.4-19.1c1.4-2.6,4.6-7.9,6.8-8c1.9-0.1,2.3,1.5,2.3,6.8c0,17.6,22.4,16.8,29.8,16.8s25.9-4.6,25.9-4.6
	s-4.2-3-9.8-9.3c-12.4-14-11.6-25.9-28.9-25.9c-17,0-22.2,9.6-22.2,9.6l-7.2,10.1h0c0,0,0,0,0,0.1l-1.9,2.7l0,0
	c-4.2,5.7-9.1,9.8-11.1,9.8c-1.1,0-1.5-0.9-1.5-2.1c0-2.2,1.7-6.4,3.7-10.4c1.4-2.8,2.3-4.8,2.3-6.6c0-2.1-1-3.3-6.1-4.8
	c-1.5-0.4-3.1-1-4.1-1.6c1.1-1.9,2.9-3.2,5-4.3c0.2-0.5,0.3-1.1,0.3-1.7c0-2.3-2-3.7-4.9-3.7c-4.8,0-13.9,8.6-13.9,14.6
	c0,1.6,0.6,2.8,1.3,3.5c-0.9,2.3-1.9,3.9-3.1,5.7c-4.9,6.6-11.8,10.8-17.2,10.8c-3.4,0-4.2-2.2-4.2-6.1c11.9-2.7,16.1-8.3,16.1-15.6
	c0-6.1-3.3-8.9-9.3-8.9c-7.6,0-17,10.9-18.7,22.6c-4.5,5.2-8.4,7.3-10,7.3c-1.4,0-2.2-0.3-3.2-1c5.7-6.7,9.5-13.6,9.5-18.9
	c0-4.6-2.6-7.8-6.8-7.8c-3.6,0-9.2,4.2-14.7,12.4c1.8-7.3,4.7-11.5,7.9-14.4c0.1-0.3,0.1-0.7,0.1-0.9c0-2.5-2.3-4.2-5.8-4.2
	C96.9,70.9,89.1,78.1,88.6,92.9 M119.9,49.2c0-6.7,4.2-13.8,8.5-16.6l-2.8,18c-1,1.3-2.3,2.2-3.5,2.2
	C120.9,52.8,119.9,52.4,119.9,49.2 M153.3,22.3c-0.3,3.2-0.4,4.6-0.5,6.4c-3.5,0.1-5.5,2.5-5.5,5.2c0,1.9,1.5,2.1,3.2,2.3
	c-0.9,2.9-1.6,5.4-2.1,7.6c-5.3,7.3-9.6,10.4-11.3,10.4c-0.7,0-1-0.3-1-2c0-2.2,1.1-7.7,4.2-18.6c0.7-2.4,1-4.6,1-5.7
	c0-3-3.2-7-9.1-7c-1.2,0-2.3,0.3-3,1.1l-0.3,5c-0.4-0.4-1-0.6-2.3-0.6c-8.6,0-19.4,13.6-19.4,26.6c0,7.9,3.6,11.9,8.6,11.9
	c3,0,7-2.2,9.8-10c-0.2,1.3-0.3,2.4-0.3,3.4c0,5.5,2.4,7.1,6.2,7.1c3.7,0,10.2-4.8,14.9-10c0.2,7.7,4.6,11,11.1,11
	c5.1,0,11-4,15.6-8.6c0,0,0,0,0,0.1c0,5.2,1.9,8.1,7,8.1c3.9,0,8.8-2.9,13-10.7c-0.3,1.8-0.5,3.3-0.5,4.5c0,4.5,2.2,5.6,5.7,5.6
	c4.4,0,10-4.6,14.4-9.5c-0.3,1.3-0.3,2.8-0.3,3.5c0,5.2,1.2,8.1,6.3,8.1c3.9,0,9.2-3.6,13.3-11.5c-0.3,1.8-0.5,3.3-0.5,4.5
	c0,4.5,2.2,5.6,5.7,5.6c3.6,0,8.5-3.5,12.5-7.2c3-2.7,5.8-5.8,7.5-8.5c1.8-2.4,3.4-5,5.4-8.7c1.9,0.8,2.9,1.3,2.9,2.3
	c0,2.3-4.2,9.6-4.2,15.3c0,4.9,2.9,7.3,8.2,7.3c8,0,22.8-15.4,22.8-20.9c0-1.3-1.5-2.7-3.6-2.7c-4.6,7.2-10.6,12.5-13.1,12.5
	c-1.1,0-1.5-0.9-1.5-2.1c0-2.2,1.7-6.4,3.7-10.4c1.4-2.8,2.3-4.8,2.3-6.6c0-2.1-1-3.3-6.1-4.8c-1.5-0.4-3.1-1-4.1-1.6
	c1.1-1.9,2.9-3.2,5-4.3c0.2-0.5,0.3-1.1,0.3-1.7c0-2.3-2-3.7-4.9-3.7c-4.8,0-13.9,8.6-13.9,14.6c0,1.6,0.6,2.8,1.3,3.5
	c-1.2,3-2.6,5-4.3,7.4c-4.4,5.7-7.7,8.3-9.5,8.3c-0.7,0-1.2-0.3-1.2-1.4c0-1.6,4-11.1,5.8-16c1.3-3.5,1.6-5.2,1.6-6.7
	c0-3.5-3.5-7-8.4-7c-1.3,0-2.8,0.5-3.6,1.6c-0.4,7.4-2.1,15.4-5,24.7c-1.7,1.8-4.5,3.9-6,3.9c-1.2,0-1.7-0.9-1.7-2.3
	c0-1.4,0.6-4.5,1.5-7.6c4.4-7.2,6.7-12.4,6.7-15.1c0-2.6-1.5-3.5-4.2-3.5c-6.1,0-14.5,9.3-14.5,15.1c0,1.1,0.3,3,0.9,4.4
	c-5.2,6.7-9.1,9.8-11,9.8c-0.7,0-1.2-0.3-1.2-1.4c0-1.6,2.9-6.7,4.7-11.7c1.3-3.5,1.6-5.2,1.6-6.7c0-3.8-2.9-8.9-7.7-8.9
	c-1.3,0-2.8,0.5-3.6,1.6c-0.4,7.4-1.6,12.5-4.5,21.8c-1.7,1.8-4.3,3.1-5.8,3.1c-1.2,0-1.7-0.9-1.7-2.2c0-1.4,0.3-3.2,1.2-6.3
	c4.4-7.2,5.8-10.6,5.8-13.3c0-2.6-2.3-3.5-5-3.5c-5.5,0-9.7,7.7-11.8,16.9c-5.7,7.7-11.3,11.5-14.7,11.5c-1.8,0-2.3-1-2.3-3
	c0-1.3,0.7-6.1,3-15.7c2.5,0.4,4.3,0.5,6.3,0.5c2.9,0,5-2.5,5-5.8c0-1.3-0.6-2.9-1.6-3.6c-1.1,0.3-4.8,0.5-7.4,0.6
	c4.6-9.2,5.6-11.2,5.6-13.9c0-3.7-1.8-5.1-5.8-5.1C158.7,9.3,154,14.7,153.3,22.3 M70.4,13.6c0,3.4,0.5,6,1.7,9.8
	C59.6,52.9,54.4,59.9,51.2,59.9c-1.8,0-2.3-1-2.3-4.2c0-8.5-6.4-9-8.8-9c-0.4,0-0.7,0-1,0c0,0,0,0,0,0c-16.6,0-23.7,16.3-23.7,25.9
	c0,5.4,1.5,10.2,6.1,16.1c8,10.2,8.6,12.5,8.6,15.4c0,4.4-2.6,7.4-5.9,7.4c-5.8,0-11.2-5.2-11.2-17v-1.6c-0.8-0.9-2.1-1.4-3.5-1.4
	c-6.1,0-9.4,7.4-9.4,13.7c0,9.5,6.8,17.4,20.1,17.4c14.5,0,23.5-11.7,23.5-21.5c0-5.1-1.2-8.7-8.5-19c-5-7-6.5-10.4-6.5-13.2
	c0-2.5,1.6-6.6,4.6-6.6c2,0,3.1,0.5,5.6,4.8c2.1,3,4.9,4.4,8.8,4.4c10,0,18.8-9.6,30.1-39.4c4.1,6.7,9.2,16.4,10.8,20.7
	c-2.1,5.6-2.9,8.3-2.9,10.3c0,2.5,2.4,4.2,6.9,4.2c5.5,0,10.1-4.2,10.1-10.8c0-3-0.4-7.2-0.9-9.6c8.5-32,9.4-33.8,17-34.6
	c1-1,1.7-2.7,1.7-4.2c0-4.3-2.9-7.3-7.5-7.3c-8.5,0-10.9,6.1-17,36.3c-2.2-5.1-8.7-14.9-11.3-20.3c4.2-6.8,5.6-9.9,5.6-12.3
	c0-2.1-2-4.5-6.7-4.5C75.8,0,70.4,6.5,70.4,13.6"/>
</svg>
